<svg width="45" height="50" viewBox="0 0 45 50" fill="none" xmlns="http://www.w3.org/2000/svg">
    <path d="M0 16.4538V33.5462C0 36.3715 1.49328 38.9818 3.91716 40.3945L18.5827 48.9406C21.0066 50.3531 23.9931 50.3531 26.4173 48.9406L41.0828 40.3945C43.5067 38.9821 45 36.3715 45 33.5462V16.4538C45 13.6285 43.5067 11.0182 41.0828 9.60546L26.4173 1.05936C23.9934 -0.353118 21.0069 -0.353118 18.5827 1.05936L3.91716 9.60546C1.49328 11.0182 0 13.6285 0 16.4538Z" fill="#FF4600" />
    <path transform="translate(11.674, 13.674)" d="M19.4058 18.7121H2.27285V1.58784C2.27285 1.40378 2.1997 1.22726 2.0695 1.09713C1.9393 0.966995 1.76272 0.893896 1.57861 0.893896C1.39451 0.893896 1.21793 0.966995 1.08773 1.09713C0.95753 1.22726 0.884375 1.40378 0.884375 1.58784V19.406C0.884375 19.5901 0.95753 19.7666 1.08773 19.8967C1.21793 20.0268 1.39451 20.0999 1.57861 20.0999H19.4058C19.5899 20.0999 19.7664 20.0268 19.8966 19.8967C20.0268 19.7666 20.1 19.5901 20.1 19.406C20.1 19.2219 20.0268 19.0454 19.8966 18.9153C19.7664 18.7852 19.5899 18.7121 19.4058 18.7121Z" fill="white" stroke="white" stroke-width="0.2"/>
    <path transform="translate(11.674, 13.674)" d="M3.95517 14.1607L3.95368 14.1607C3.81139 14.1583 3.67326 14.1122 3.55802 14.0287C3.44277 13.9453 3.35596 13.8284 3.30936 13.694C3.26276 13.5596 3.25862 13.4141 3.29751 13.2772C3.33639 13.1404 3.41642 13.0188 3.52674 12.9289L3.52851 12.9274L3.52852 12.9275L8.87667 8.76989L8.87677 8.76981C8.95429 8.70972 9.04366 8.66673 9.139 8.64367C9.23434 8.62061 9.33349 8.61801 9.42991 8.63604C9.52633 8.65407 9.61783 8.69232 9.69839 8.74827C9.7789 8.80418 9.84666 8.87652 9.89719 8.9605L3.95517 14.1607ZM3.95517 14.1607C4.10973 14.1609 4.25998 14.1097 4.3821 14.0149L9.11265 10.3478L10.4924 12.6273C10.4924 12.6273 10.4925 12.6274 10.4925 12.6275C10.5452 12.7151 10.6165 12.79 10.7014 12.8468C10.7865 12.9037 10.883 12.9411 10.9841 12.9564C11.0853 12.9716 11.1886 12.9643 11.2866 12.935C11.3846 12.9057 11.4749 12.8551 11.5511 12.7869L11.5512 12.7867L16.9286 7.94784V8.84884C16.9286 9.0329 17.0018 9.20942 17.132 9.33955C17.2622 9.46968 17.4387 9.54278 17.6228 9.54278C17.8069 9.54278 17.9835 9.46968 18.1137 9.33955C18.2439 9.20942 18.3171 9.0329 18.3171 8.84884L18.3171 6.11124L18.2171 6.11079H18.3171V6.11102C18.3175 6.01413 18.2976 5.91824 18.2587 5.8295L18.1671 5.86967L18.2587 5.8295C18.2197 5.7407 18.1626 5.66105 18.091 5.59567C18.0194 5.53029 17.9348 5.48064 17.8428 5.44992C17.7508 5.4192 17.6534 5.40809 17.5569 5.4173L17.5568 5.41731L15.18 5.64596L15.1894 5.74551L15.1799 5.64597L15.1799 5.64597C15.0888 5.65462 15.0004 5.68112 14.9195 5.72395C14.8386 5.76679 14.767 5.82513 14.7087 5.89565C14.6504 5.96616 14.6066 6.04746 14.5797 6.13492C14.5528 6.22237 14.5434 6.31426 14.5521 6.40534C14.5608 6.49642 14.5873 6.58489 14.6301 6.66572L14.7185 6.61887L14.6301 6.66573C14.673 6.74656 14.7314 6.81815 14.8019 6.87642C14.8725 6.9347 14.9538 6.97852 15.0413 7.00537C15.1288 7.03222 15.2207 7.04159 15.3118 7.03294L15.3121 7.03292L15.9511 6.97045M3.95517 14.1607L15.9511 6.97045M15.9511 6.97045L11.2489 11.2L9.89727 8.96064L15.9511 6.97045Z" fill="white" stroke="white" stroke-width="0.2"/>
</svg>
